<svg width="128" height="105" viewBox="0 0 128 105" xmlns="http://www.w3.org/2000/svg">
    <g fill="none" fill-rule="evenodd">
        <path d="m57.512 104.88-.398-1.126H54.72l-.399 1.127h-.997l2.026-5.595h1.113l2.017 5.595h-.989.02zm-2.464-1.998h1.77l-.885-2.525-.885 2.525zM64.323 101.983v.4a2.52 2.52 0 0 1-.758 1.886 2.72 2.72 0 0 1-1.993.727 2.911 2.911 0 0 1-2.138-.839 2.95 2.95 0 0 1 0-4.116 2.828 2.828 0 0 1 2.09-.847 2.79 2.79 0 0 1 2.432 1.327l-.797.455a1.841 1.841 0 0 0-1.643-.887 1.94 1.94 0 0 0-1.444.575 2 2 0 0 0-.566 1.44c-.015.534.19 1.051.566 1.43.403.384.944.589 1.5.567.988 0 1.634-.503 1.802-1.279h-1.866V102h2.791l.024-.016zM68.342 104.88l-1.196-2.038h-1.084v2.039h-.918v-5.595h2.233a1.8 1.8 0 0 1 1.795 1.798 1.762 1.762 0 0 1-1.109 1.623l1.268 2.174h-1.005.016zm-2.264-4.731v1.878h1.315a.934.934 0 0 0 0-1.87h-1.315v-.008zM73.686 104.88l-.399-1.126h-2.393l-.398 1.127h-.997l2.025-5.595h1.101l2.018 5.595h-.99.033zm-2.465-1.998h1.77l-.884-2.525-.886 2.525z" fill="#C97C00" fill-rule="nonzero"/>
        <path stroke="#F7D36F" stroke-width="1.2" stroke-linecap="round" stroke-linejoin="round" d="M27.514 45.159v9.991M30.704 39.564V55.15M33.894 35.168v11.19M37.084 31.971v10.63M40.274 29.409v11.354M43.464 27.175v15.586M46.654 41.163v5.994M81.745 40.363v9.192M84.935 27.175v15.586M88.125 29.173v11.59M91.315 31.971v10.646M94.505 35.168v11.19M97.695 39.564V55.15M100.885 45.007V55.15M81.745 55.15h22.33c-2.34-13.62-11.407-25.124-24.085-30.56M48.465 24.59C35.78 30.02 26.709 41.526 24.372 55.15h22.282"/>
        <path stroke="#F7D36F" stroke-width="1.2" stroke-linecap="round" stroke-linejoin="round" d="M104.075 87.92V55.15h-9.172v-5.595h-13.03l-2.07-5.283-31.526.088-1.718 5.195H33.495v5.595h-9.171v32.77"/>
        <path stroke="#C97C00" stroke-width="1.2" stroke-linecap="round" stroke-linejoin="round" d="M33.495 87.92h61.408M43.863 65.56a3.792 3.792 0 0 0-3.788-3.796 3.792 3.792 0 0 0-3.788 3.796v6.794h7.576V65.56zM43.863 80.994a3.792 3.792 0 0 0-3.788-3.796 3.792 3.792 0 0 0-3.788 3.796v6.926h7.576v-6.926z"/>
        <path d="M46.574 49.555a6.183 6.183 0 0 0-.482-3.66c-.981-2.095-2.95-3.765-5.806-5.3-4.314 2.314-7.36 5.027-6.779 8.96h13.16V87.92" stroke="#C97C00" stroke-width="1.2" stroke-linecap="round" stroke-linejoin="round"/>
        <path stroke="#C97C00" stroke-width="1.2" stroke-linecap="round" stroke-linejoin="round" d="M81.745 49.555H46.67l1.6-5.195M46.255 39.164h35.888M58.617 14.787h11.165M33.495 55.15h13.159M82.143 55.15h12.76M0 87.92h24.324M104.075 87.92H128M0 91.117h127.601"/>
        <path stroke="#C97C00" stroke-width="1.2" stroke-linecap="round" stroke-linejoin="round" d="M81.745 87.92V49.555l-1.958-5.283M64.199 0v8.792M81.832 49.479c-.57-3.932 1.994-6.458 6.305-8.792 2.855 1.53 5.227 3.093 6.208 5.195a6.195 6.195 0 0 1 .554 3.66l-13.067-.063zM84.536 65.56a3.792 3.792 0 0 1 3.788-3.796c2.092 0 3.788 1.7 3.788 3.796v6.794h-7.576V65.56zM84.536 80.982a3.792 3.792 0 0 1 3.788-3.796c2.092 0 3.788 1.7 3.788 3.796v6.926h-7.576v-6.926z"/>
        <path stroke="#F7D36F" stroke-width="1.2" stroke-linecap="round" stroke-linejoin="round" d="M104.075 43.96v11.589M24.324 43.96v11.589"/>
        <path stroke="#C97C00" stroke-width="1.2" stroke-linecap="round" stroke-linejoin="round" d="M33.495 49.555V87.92M94.903 49.555V87.92"/>
        <path stroke="#F7D36F" stroke-width="1.2" stroke-linecap="round" stroke-linejoin="round" d="m74.451 85.198-2.436 2.494M74.415 80.719l-6.778 6.917M74.495 76.119 63.199 87.636M73.905 72.198 58.756 87.636M69.555 72.106l-15.229 15.53M65.109 72.106 54.262 83.184M60.666 72.106l-6.404 6.574M56.224 72.106l-1.978 2.015"/>
        <path stroke="#C97C00" stroke-width="1.2" stroke-linecap="round" stroke-linejoin="round" d="M121.62 72.334h-5.583M121.221 54.351h-4.785M120.822 37.166h-3.987M13.159 72.334H7.576M12.76 54.351H7.975M12.76 51.153H7.975M121.221 51.153h-4.785M12.361 37.166H8.374M11.464 51.153l-.283-20.381a.798.798 0 1 0-1.595 0l-.283 20.381h2.165-.004zM9.255 54.35 8.79 87.92h3.19l-.471-33.57zM117.716 54.35l-.466 33.57h3.19l-.47-33.57zM119.925 51.153l-.283-20.381a.798.798 0 1 0-1.595 0l-.283 20.381h2.165-.004z"/>
        <circle fill="#C97C00" fill-rule="nonzero" cx="10.384" cy="26.052" r="1"/>
        <circle fill="#C97C00" fill-rule="nonzero" cx="118.845" cy="26.052" r="1"/>
        <circle fill="#C97C00" fill-rule="nonzero" transform="rotate(-45 64.238 35.633)" cx="64.238" cy="35.633" r="1"/>
        <circle fill="#C97C00" fill-rule="nonzero" transform="rotate(-45 70.62 35.631)" cx="70.62" cy="35.631" r="1"/>
        <circle fill="#C97C00" fill-rule="nonzero" transform="rotate(-45 77.001 35.634)" cx="77.001" cy="35.634" r="1"/>
        <circle fill="#C97C00" fill-rule="nonzero" transform="rotate(-45 51.578 35.633)" cx="51.578" cy="35.633" r="1"/>
        <circle fill="#C97C00" fill-rule="nonzero" transform="rotate(-45 57.96 35.631)" cx="57.959" cy="35.631" r="1"/>
        <path d="M79.803 44.276C91.498 25.249 68.717 16.789 64.25 8.796h-.048c-4.454 7.993-27.633 16.54-15.95 35.568l31.55-.088zM74.455 70.3c-.203-5.595-4.179-8.476-10.104-11.63-5.926 3.154-10.105 6.047-10.105 11.642l.024 17.612h20.237L74.455 70.3zM54.231 71.935h20.113" stroke="#C97C00" stroke-width="1.2" stroke-linecap="round" stroke-linejoin="round"/>
    </g>
</svg>
