<svg width="106" height="111" viewBox="0 0 106 111" xmlns="http://www.w3.org/2000/svg">
    <g fill="none" fill-rule="evenodd">
        <path stroke="#E292EA" stroke-width="1.115" stroke-linecap="round" stroke-linejoin="round" d="m9.852 72.77 4.95-14.405 4.947 14.393"/>
        <path stroke="#E292EA" stroke-width="1.115" stroke-linecap="round" stroke-linejoin="round" d="M0 93.984V72.77l4.928-14.405 4.958 14.36M19.75 72.702l4.946-14.404 4.947 14.397M29.643 72.77l4.113-11.98M25.291 93.984v-7.699l4.091-6.66 4.092 6.656v7.703M17.48 93.984v-7.699l3.906-6.66 3.905 6.656v7.703"/>
        <path stroke="#E292EA" stroke-width="1.115" stroke-linecap="round" stroke-linejoin="round" d="M9.298 93.984v-7.699l4.091-6.66 4.092 6.656v7.703M13.389 88.754h15.993"/>
        <circle fill="#E292EA" fill-rule="nonzero" cx="24.696" cy="54.629" r="1"/>
        <circle fill="#E292EA" fill-rule="nonzero" cx="14.799" cy="54.629" r="1"/>
        <circle fill="#E292EA" fill-rule="nonzero" cx="4.906" cy="54.629" r="1"/>
        <path stroke="#E292EA" stroke-width="1.115" stroke-linecap="round" stroke-linejoin="round" d="m97.658 83.506 4.08-11.67 4.08 11.7v10.448M89.497 83.543l4.077-11.689 4.076 11.682M81.27 83.543l4.114-11.689 4.058 11.768"/>
        <circle fill="#E292EA" fill-rule="nonzero" cx="101.723" cy="68.328" r="1"/>
        <circle fill="#E292EA" fill-rule="nonzero" cx="93.641" cy="68.328" r="1"/>
        <circle fill="#E292EA" fill-rule="nonzero" cx="85.429" cy="68.328" r="1"/>
        <path stroke="#BA61C1" stroke-width="1.115" stroke-linecap="round" stroke-linejoin="round" d="M0 97.72h106"/>
        <ellipse stroke="#BA61C1" stroke-width="1.115" stroke-linecap="round" stroke-linejoin="round" cx="38.439" cy="22.739" rx="2.499" ry="2.51"/>
        <path stroke="#BA61C1" stroke-width="1.115" stroke-linecap="round" stroke-linejoin="round" d="M57.277 40.565v3.736M38.402 25.249v4.109"/>
        <ellipse stroke="#BA61C1" stroke-width="1.115" stroke-linecap="round" stroke-linejoin="round" cx="76.164" cy="22.739" rx="2.499" ry="2.51"/>
        <path stroke="#BA61C1" stroke-width="1.115" stroke-linecap="round" stroke-linejoin="round" d="M76.123 25.249v4.109"/>
        <ellipse stroke="#BA61C1" stroke-width="1.115" stroke-linecap="round" stroke-linejoin="round" cx="48.537" cy="2.51" rx="2.499" ry="2.51"/>
        <path stroke="#BA61C1" stroke-width="1.115" stroke-linecap="round" stroke-linejoin="round" d="M48.533 5.021V9.13"/>
        <ellipse stroke="#BA61C1" stroke-width="1.115" stroke-linecap="round" stroke-linejoin="round" cx="66.133" cy="2.51" rx="2.499" ry="2.51"/>
        <path stroke="#BA61C1" stroke-width="1.115" stroke-linecap="round" stroke-linejoin="round" d="M66.129 5.021v3.956M33.474 97.346V72.96A235.1 235.1 0 0 1 35.02 45.43l2.083-14.67c.1-.867.591-1.322 1.294-1.322h0c.744 0 1.201.455 1.302 1.322l2.194 14.67c.83 7.041 1.224 14.195 1.436 21.293M43.33 66.714l.186-14.038c-.005-9.201.53-18.394 1.603-27.532l2.109-14.67c.1-.866.606-1.322 1.309-1.322h0c.744 0 1.209.456 1.309 1.323l2.105 14.67a235.162 235.162 0 0 1 1.607 27.53v6.661"/>
        <ellipse stroke="#BA61C1" stroke-width="1.115" stroke-linecap="round" stroke-linejoin="round" cx="57.277" cy="37.89" rx="2.499" ry="2.51"/>
        <path d="M81.189 97.432v-24.39c.012-9.2-.516-18.393-1.581-27.531l-2.094-14.67c-.1-.867-.599-1.322-1.302-1.322h0c-.744 0-1.205.455-1.305 1.322l-2.117 14.67c-.862 7.318-1.487 14.124-1.655 21.487" stroke="#BA61C1" stroke-width="1.115" stroke-linecap="round" stroke-linejoin="round"/>
        <path d="M71.154 66.998v-14.36c.01-9.2-.52-18.393-1.588-27.531l-2.105-14.67c-.1-.866-.603-1.322-1.306-1.322h0c-.744 0-1.205.456-1.309 1.322l-2.12 14.67a235.17 235.17 0 0 0-1.618 27.531v6.941M66.204 97.72H48.35V80.895l8.926-36.964 8.927 36.96z" stroke="#BA61C1" stroke-width="1.115" stroke-linecap="round" stroke-linejoin="round"/>
        <path stroke="#BA61C1" stroke-width="1.115" stroke-linecap="round" stroke-linejoin="round" d="M48.35 97.72H38.31V80.756l5.02-14.412 5.022 14.405zM50.211 47.289v7.098M46.863 49.157v7.471M40.168 54.387v7.471M36.821 56.628v7.471M64.459 47.289v7.098M67.807 49.157v7.471M74.758 54.387v7.471M78.105 56.628v7.471M34.218 38.324h6.612M46.119 18.151h4.835M63.734 18.151h4.835M74.178 38.324h6.159"/>
        <path d="M44.818 89.628c0-.825-.667-1.494-1.488-1.494-.822 0-1.488.67-1.488 1.494v8.092h2.976v-8.092zM76.246 97.701H66.204V80.734l5.02-14.412 5.022 14.404z" stroke="#BA61C1" stroke-width="1.115" stroke-linecap="round" stroke-linejoin="round"/>
        <path d="M72.712 89.606c0-.825-.666-1.494-1.487-1.494-.822 0-1.488.669-1.488 1.494v8.091h2.975v-8.091zM60.81 75.982a3.541 3.541 0 0 0-3.533-3.549 3.541 3.541 0 0 0-3.533 3.55V97.72h7.067V75.982z" stroke="#BA61C1" stroke-width="1.115" stroke-linecap="round" stroke-linejoin="round"/>
        <path d="M34.686 109.405a1.4 1.4 0 0 1-.454 1.068 1.558 1.558 0 0 1-1.115.426h-2.232v-5.23h2.068c.4-.009.788.142 1.079.418.29.262.454.639.446 1.031a1.26 1.26 0 0 1-.52 1.088c.45.227.732.692.728 1.199zm-2.938-2.929v1.375h1.212a.686.686 0 0 0 .685-.688.686.686 0 0 0-.685-.687h-1.212zm1.376 3.616a.746.746 0 0 0 0-1.464h-1.376v1.464h1.376zM38.822 110.903l-.372-1.054H36.22l-.372 1.054h-.93l1.89-5.23h1.026l1.882 5.23h-.923.03zm-2.298-1.868h1.65l-.825-2.361-.825 2.36zM43.27 110.903l-1.115-1.905h-1.012v1.905h-.856v-5.23h2.083a1.681 1.681 0 0 1 1.674 1.68 1.647 1.647 0 0 1-1.034 1.517l1.183 2.033h-.938.015zm-2.112-4.423v1.748h1.227c.48 0 .87-.391.87-.874a.872.872 0 0 0-.87-.874h-1.227zM45.338 110.223a2.655 2.655 0 0 1-.773-1.935 2.673 2.673 0 0 1 .785-1.94 2.65 2.65 0 0 1 1.937-.772 2.564 2.564 0 0 1 2.232 1.247l-.744.434a1.665 1.665 0 0 0-1.488-.845c-1.027 0-1.86.837-1.86 1.868 0 1.032.833 1.868 1.86 1.868a1.657 1.657 0 0 0 1.488-.844l.744.426a2.449 2.449 0 0 1-.93.919c-.4.225-.851.341-1.31.336a2.646 2.646 0 0 1-1.94-.762zM51.088 110.073h2.306v.822h-3.161v-5.23h3.139v.822h-2.269v1.36h2.083v.814h-2.083v1.412zM55.03 110.073h2.12v.822h-2.975v-5.23h.856zM59.888 111a2.66 2.66 0 0 1-1.92-.784 2.685 2.685 0 0 1-.78-1.928 2.72 2.72 0 0 1 1.668-2.519 2.699 2.699 0 0 1 2.954.588 2.728 2.728 0 0 1 .586 2.967A2.708 2.708 0 0 1 59.888 111zm0-.837c.49.011.964-.18 1.31-.53a1.83 1.83 0 0 0 .535-1.345 1.8 1.8 0 0 0-.536-1.338 1.759 1.759 0 0 0-1.309-.538 1.785 1.785 0 0 0-1.316.538 1.823 1.823 0 0 0-.529 1.338c-.01.501.18.986.529 1.345.349.348.824.54 1.316.53zM66.494 105.67h.855v5.229h-.67l-2.454-3.549v3.549h-.856v-5.23h.67l2.455 3.549zM71.782 110.903l-.371-1.054h-2.232l-.372 1.054h-.93l1.89-5.23h1.026l1.882 5.23h-.893zm-2.298-1.868h1.651l-.825-2.361-.826 2.36z" fill="#BA61C1" fill-rule="nonzero"/>
    </g>
</svg>
