<svg width="105" height="122" viewBox="0 0 105 122" xmlns="http://www.w3.org/2000/svg">
    <g fill="none" fill-rule="evenodd">
        <circle fill="#BCC9D8" fill-rule="nonzero" cx="4.689" cy="63.765" r="1"/>
        <circle fill="#BCC9D8" fill-rule="nonzero" cx="14.684" cy="39.094" r="1"/>
        <circle fill="#BCC9D8" fill-rule="nonzero" cx="7.194" cy="50.732" r="1"/>
        <circle fill="#BCC9D8" fill-rule="nonzero" cx="26.014" cy="30.935" r="1"/>
        <circle fill="#BCC9D8" fill-rule="nonzero" cx="56.569" cy="31.177" r="1"/>
        <circle fill="#BCC9D8" fill-rule="nonzero" cx="41.216" cy="27.817" r="1"/>
        <circle fill="#BCC9D8" fill-rule="nonzero" cx="14.582" cy="88.776" r="1"/>
        <circle fill="#BCC9D8" fill-rule="nonzero" cx="7.005" cy="77.327" r="1"/>
        <circle fill="#BCC9D8" fill-rule="nonzero" cx="25.817" cy="96.677" r="1"/>
        <circle fill="#BCC9D8" fill-rule="nonzero" cx="56.048" cy="96.677" r="1"/>
        <path d="M61.67 38.06c-13.584-10.767-33.2-9.156-44.841 3.682-11.64 12.84-11.31 32.5.755 44.94 12.066 12.441 31.726 13.393 44.94 2.176m.04-5.296a29.118 29.118 0 0 1-31.676 7.424A29.07 29.07 0 0 1 12.125 64.43 29.067 29.067 0 0 1 29.737 37.1a29.12 29.12 0 0 1 31.965 6.068M46.184 96.427l.025 6.961M36.268 96.427v5.308" stroke="#BCC9D8" stroke-width="1.23" stroke-linecap="round" stroke-linejoin="round"/>
        <g stroke="#BCC9D8" stroke-linecap="round" stroke-linejoin="round" stroke-width="1.23">
            <path d="m61.653 43.964-22.19-9.173M61.665 47.52 33.16 35.739M61.682 51.077l-33.069-13.67M62.458 54.949 24.954 39.45M62.413 58.48 21.985 41.774M62.413 62.034l-43.064-17.8M62.462 65.607l-45.265-18.71M40.46 60.065l-25.037-10.35M62.458 69.155l-17.937-7.412M37.253 62.288l-23.259-9.611M62.523 72.732l-17.82-7.363M38.304 66.275l-25.39-10.493M62.207 76.154l-20.54-8.488M62.404 79.788 12.187 59.035M62.1 83.214 11.9 62.469M59.731 85.786l-47.83-19.77M56.705 88.087 12.775 69.93M52.89 90.064 13.86 73.93M48.32 91.726 15.65 78.22M42.32 92.796l-22.963-9.488"/>
        </g>
        <path d="M61.743 43.29a29.066 29.066 0 0 0-31.91-6.184 29.014 29.014 0 0 0-17.669 27.258A29.016 29.016 0 0 0 30.871 90.92a29.065 29.065 0 0 0 31.649-7.408.53.53 0 0 0 .119-.131c0-.526-.025-1.707-.025-1.707V51.274l-.846-.025-.025-7.958z" stroke="#BCC9D8" stroke-width="1.23" stroke-linecap="round" stroke-linejoin="round"/>
        <ellipse stroke="#BCC9D8" stroke-width="1.23" stroke-linecap="round" stroke-linejoin="round" cx="41.216" cy="63.806" rx="3.819" ry="3.815"/>
        <path stroke="#8698B2" stroke-width="1.23" stroke-linecap="round" stroke-linejoin="round" d="m62.544 101.62.074-50.342h19.58v50.457M61.772 34.052H82.95V48H61.772zM64.54 30.356h15.604v3.692H64.54z"/>
        <path stroke="#8698B2" stroke-width="1.23" stroke-linecap="round" stroke-linejoin="round" d="M82.953 51.278h-21.18v-3.282h21.176zM67.575 15.588h9.445v5.743h-9.445zM80.144 30.356H64.54l3.063-9.025h9.424zM72.28 4.295l-4.705 11.29 9.444.003zM72.28 0v4.512M69.057 54.559v5.744M75.627 54.559v5.744M69.057 68.917v5.743M75.627 68.917v5.743M69.057 82.865v6.153M75.627 82.865v6.153M61.772 30.767v3.281M82.949 30.767v3.281"/>
        <ellipse stroke="#8698B2" stroke-width="1.23" stroke-linecap="round" stroke-linejoin="round" cx="72.502" cy="41.034" rx="4.607" ry="4.603"/>
        <path stroke="#8698B2" stroke-width="1.23" stroke-linecap="round" stroke-linejoin="round" d="M72.342 36.92v4.512h4.517M62.647 63.174H83.84M62.897 66.456H83.84M62.565 77.122H83.84M62.565 80.403H83.84M62.897 91.479H83.84M62.897 94.761H83.84M3.297 101.62a3.836 3.836 0 0 0 6.595 0"/>
        <path d="M9.888 101.62a3.836 3.836 0 0 0 6.595 0M16.483 101.62a3.836 3.836 0 0 0 6.595 0M23.078 101.62a3.836 3.836 0 0 0 6.595 0M29.673 101.62a3.836 3.836 0 0 0 6.595 0" stroke="#8698B2" stroke-width="1.23" stroke-linecap="round" stroke-linejoin="round"/>
        <path d="M36.263 101.62a3.836 3.836 0 0 0 6.595 0M0 103.49a3.75 3.75 0 0 0 3.285-1.858M42.858 101.62a3.836 3.836 0 0 0 6.595 0M49.453 101.62a3.836 3.836 0 0 0 6.595 0M56.048 101.62a3.836 3.836 0 0 0 6.595 0" stroke="#8698B2" stroke-width="1.23" stroke-linecap="round" stroke-linejoin="round"/>
        <path d="M62.581 101.62a3.836 3.836 0 0 0 6.595 0M69.176 101.62a3.836 3.836 0 0 0 6.595 0" stroke="#8698B2" stroke-width="1.23" stroke-linecap="round" stroke-linejoin="round"/>
        <path d="M75.767 101.62a3.836 3.836 0 0 0 6.595 0M82.386 101.62a3.836 3.836 0 0 0 6.595 0" stroke="#8698B2" stroke-width="1.23" stroke-linecap="round" stroke-linejoin="round"/>
        <path d="M88.977 101.62a3.836 3.836 0 0 0 6.595 0M98.87 103.482a3.75 3.75 0 0 1-3.286-1.858M9.449 105.726a3.836 3.836 0 0 0 6.595 0M16.044 105.726a3.836 3.836 0 0 0 6.594 0M22.638 105.726a3.836 3.836 0 0 0 6.595 0M29.233 105.726a3.836 3.836 0 0 0 6.595 0" stroke="#8698B2" stroke-width="1.23" stroke-linecap="round" stroke-linejoin="round"/>
        <path d="M35.824 105.726a3.836 3.836 0 0 0 6.595 0M42.419 105.726a3.836 3.836 0 0 0 6.595 0M49.014 105.726a3.836 3.836 0 0 0 6.595 0" stroke="#8698B2" stroke-width="1.23" stroke-linecap="round" stroke-linejoin="round"/>
        <path d="M55.604 105.726a3.836 3.836 0 0 0 6.595 0M6.155 107.601a3.75 3.75 0 0 0 3.286-1.858M62.2 105.726a3.836 3.836 0 0 0 6.594 0M68.794 105.726a3.836 3.836 0 0 0 6.595 0M75.389 105.726a3.836 3.836 0 0 0 6.595 0" stroke="#8698B2" stroke-width="1.23" stroke-linecap="round" stroke-linejoin="round"/>
        <path d="M81.922 105.726a3.836 3.836 0 0 0 6.595 0M88.517 105.726a3.836 3.836 0 0 0 6.595 0M95.112 105.726a3.836 3.836 0 0 0 6.595 0M105 107.593a3.75 3.75 0 0 1-3.285-1.859" stroke="#8698B2" stroke-width="1.23" stroke-linecap="round" stroke-linejoin="round"/>
        <path fill="#8698B2" fill-rule="nonzero" d="M37.196 120.982h2.34v.903h-3.285v-5.743h.945zM42.558 122a2.946 2.946 0 0 1-2.98-2.978 2.996 2.996 0 0 1 5.11-2.127 2.988 2.988 0 0 1-2.13 5.105zm0-.92a1.968 1.968 0 0 0 1.446-.582 2 2 0 0 0 .591-1.476 1.968 1.968 0 0 0-.591-1.469 1.943 1.943 0 0 0-1.446-.59 1.976 1.976 0 0 0-1.453.59c-.388.389-.6.92-.583 1.469a2.05 2.05 0 0 0 .583 1.476c.385.383.91.594 1.453.583zM49.851 116.146h.945v5.743h-.74l-2.71-3.897v3.897h-.944v-5.743h.76l2.71 3.897v-3.897zM54.204 116.146a2.588 2.588 0 0 1 1.963.82 3.042 3.042 0 0 1 0 4.103 2.588 2.588 0 0 1-1.963.82h-2.258v-5.743h2.258zm0 4.84c.501.017.985-.187 1.322-.557.69-.815.69-2.008 0-2.823a1.713 1.713 0 0 0-1.322-.558h-1.293v3.934h1.314l-.02.005zM60.512 122a2.946 2.946 0 0 1-2.982-2.978 2.996 2.996 0 0 1 5.11-2.127A2.988 2.988 0 0 1 60.513 122zm0-.92a1.968 1.968 0 0 0 1.445-.582 2 2 0 0 0 .591-1.476 1.968 1.968 0 0 0-.591-1.469 1.943 1.943 0 0 0-1.445-.59 1.976 1.976 0 0 0-1.454.59c-.388.389-.6.92-.583 1.469a2.05 2.05 0 0 0 .583 1.476c.385.383.91.594 1.454.583zM67.804 116.146h.945v5.743h-.74l-2.71-3.897v3.897h-.944v-5.743h.74l2.71 3.897z"/>
    </g>
</svg>
