<svg width="133" height="120" viewBox="0 0 133 120" xmlns="http://www.w3.org/2000/svg">
    <g fill="none" fill-rule="evenodd">
        <path fill="#D62970" fill-rule="nonzero" d="M54.818 114.703v5.197h-.846v-3.712l-1.574 2.598h-.103l-1.574-2.62v3.711h-.85v-5.196h.917l1.559 2.598 1.566-2.598h.909zM58.276 120a2.643 2.643 0 0 1-1.906-.78 2.668 2.668 0 0 1-.776-1.915 2.702 2.702 0 0 1 1.657-2.503 2.68 2.68 0 0 1 2.934.585c.77.774 1 1.938.582 2.948a2.69 2.69 0 0 1-2.49 1.665zm0-.832c.487.012.958-.179 1.3-.527.354-.352.547-.836.533-1.336a1.79 1.79 0 0 0-.532-1.329 1.743 1.743 0 0 0-1.3-.534 1.812 1.812 0 0 0-1.832 1.863c-.012.498.177.98.523 1.336.347.347.819.538 1.308.527zM61.269 118.708l.739-.43c.17.559.705.924 1.285.875.643 0 .96-.274.96-.682a.539.539 0 0 0-.258-.483 3.95 3.95 0 0 0-.916-.371 3.505 3.505 0 0 1-1.086-.475 1.197 1.197 0 0 1-.503-1.047c-.017-.42.163-.825.488-1.091a1.76 1.76 0 0 1 1.175-.409 1.913 1.913 0 0 1 1.803 1.144l-.717.415a1.108 1.108 0 0 0-1.086-.742c-.495 0-.813.252-.813.646 0 .393.251.564 1.042.809.2.067.34.111.428.148.09.038.222.082.37.149.133.05.257.12.37.208.346.242.547.645.531 1.069.014.431-.175.844-.51 1.113-.379.289-.847.433-1.322.409-.983.037-1.707-.446-1.98-1.255zM66.3 119.228a2.638 2.638 0 0 1-.768-1.923 2.657 2.657 0 0 1 .78-1.927 2.631 2.631 0 0 1 1.924-.768c.906-.012 1.75.46 2.217 1.24l-.739.43a1.654 1.654 0 0 0-1.478-.838c-.66 0-1.27.353-1.6.928a1.863 1.863 0 0 0 0 1.856c.33.574.94.927 1.6.927a1.646 1.646 0 0 0 1.478-.838l.74.423c-.22.383-.54.698-.925.913-.396.224-.845.34-1.3.334a2.627 2.627 0 0 1-1.928-.757zM73.553 120a2.643 2.643 0 0 1-1.907-.78 2.668 2.668 0 0 1-.775-1.915 2.702 2.702 0 0 1 1.656-2.503 2.68 2.68 0 0 1 2.935.585c.77.774 1 1.938.581 2.948a2.69 2.69 0 0 1-2.49 1.665zm0-.832c.487.012.957-.179 1.3-.527a1.82 1.82 0 0 0 .532-1.336 1.79 1.79 0 0 0-.532-1.329 1.747 1.747 0 0 0-1.3-.534 1.812 1.812 0 0 0-1.832 1.863c-.011.498.178.98.524 1.336.347.347.819.537 1.308.527zM77.879 119.903l-1.478-5.196h.894l1.086 4.06 1.175-4.06h.783l1.168 4.06 1.086-4.06h.894l-1.478 5.196h-.982l-1.109-3.793-1.108 3.793h-.983z"/>
        <path d="M126.897 103.89c0-.055-.03-.107-.03-.163a2.223 2.223 0 0 0-1.936-2.175c.058-.26.085-.527.082-.794 0-2.105-1.877-3.809-4.186-3.809a4.244 4.244 0 0 0-3.724 2.086c-.636-.831-1.847-1.395-3.251-1.395-.383 0-.765.043-1.138.13-.137-1.964-1.604-3.515-3.595-3.515-.93 0-1.917.341-2.287.905M22.462 101.14a5.99 5.99 0 0 0-2.649-.572 6.5 6.5 0 0 0-1.747.238c.31-.82.292-5.876-4.179-6.626-2.216-.37-4.969.412-5.467 3.274a3.87 3.87 0 0 0-.802-.085 3.83 3.83 0 0 0-2.746 1.11 3.866 3.866 0 0 0-1.144 2.743c-.001 1.003.398 1.966 1.108 2.672" stroke="#FC7AB5" stroke-width="1.11" stroke-linecap="round" stroke-linejoin="round"/>
        <path stroke="#D62970" stroke-width="1.11" stroke-linecap="round" stroke-linejoin="round" d="M0 106.86h133M22.536 103.89V90.157h84.233v13.733M37.2 57.366c-8.332-9.246 3.734-11.347 5.146-16.762 1.411 5.415 13.477 7.516 5.146 16.762M27.708 77.908h5.911v6.31h-5.911zM36.944 63.803v-6.31H47.29v6.31"/>
        <path stroke="#D62970" stroke-width="1.11" stroke-linecap="round" stroke-linejoin="round" d="m47.289 63.792 3.683 2.98H33.62l3.325-2.97M42.342 37.077v3.712"/>
        <g stroke="#FC7AB5" stroke-linecap="round" stroke-linejoin="round" stroke-width="1.11">
            <path d="m100.038 47.47-5.102 5.197M98.205 45.113l-7.248 7.38M96.06 43.068l-6.82 6.945"/>
        </g>
        <path d="M90.939 52.667c-5.911-6.518 2.645-8.003 3.642-11.822.998 3.82 9.54 5.3 3.643 11.822M75.655 13.025c-5.032-2.316-.591-5.969 0-8.82.59 2.851 5.464 6.43 0 8.82M94.578 38.562v2.598" stroke="#FC7AB5" stroke-width="1.11" stroke-linecap="round" stroke-linejoin="round"/>
        <path stroke="#D62970" stroke-width="1.11" stroke-linecap="round" stroke-linejoin="round" d="M30.664 66.772v1.856"/>
        <path stroke="#FC7AB5" stroke-width="1.11" stroke-linecap="round" stroke-linejoin="round" d="M92.361 59.348h5.8l3.133 2.97h-8.563M90.883 57.493v-4.826h7.39v6.681H92.36M75.655 12.932l-6.28 23.032h12.55z"/>
        <path stroke="#D62970" stroke-width="1.11" stroke-linecap="round" stroke-linejoin="round" d="M35.467 60.462h13.3M42.486 77.908h11.453M79.431 69.742h12.93"/>
        <circle fill="#FC7AB5" fill-rule="nonzero" cx="94.637" cy="34.821" r="1"/>
        <circle fill="#D62970" fill-rule="nonzero" cx="61.686" cy="31.02" r="1"/>
        <circle fill="#D62970" fill-rule="nonzero" cx="42.349" cy="33.522" r="1"/>
        <circle fill="#D62970" fill-rule="nonzero" cx="30.73" cy="63.309" r="1"/>
        <circle fill="#D62970" fill-rule="nonzero" cx="38.792" cy="77.822" r="1"/>
        <circle fill="#FC7AB5" fill-rule="nonzero" cx="75.636" cy=".742" r="1"/>
        <circle fill="#D62970" fill-rule="nonzero" cx="73.383" cy="99.618" r="1"/>
        <circle fill="#D62970" fill-rule="nonzero" cx="69.688" cy="99.618" r="1"/>
        <circle fill="#D62970" fill-rule="nonzero" cx="77.077" cy="99.618" r="1"/>
        <circle fill="#D62970" fill-rule="nonzero" cx="84.466" cy="99.618" r="1"/>
        <circle fill="#D62970" fill-rule="nonzero" cx="80.772" cy="99.618" r="1"/>
        <g stroke="#D62970" stroke-linecap="round" stroke-linejoin="round" stroke-width="1.11">
            <path d="m50.137 50.15-7.286 7.29M48.556 47.537l-9.913 9.922M46.394 45.507l-10.3 10.315M44.137 43.573l-9.502 9.517"/>
        </g>
        <path d="M37.196 57.366c-8.346-9.242 3.735-11.343 5.146-16.759 1.411 5.416 13.477 7.517 5.146 16.763M24.753 86.816v3.341M27.708 84.218v5.939M30.664 84.218v5.939M33.619 84.218v5.939M36.575 84.218v5.939M39.531 84.218v5.939M42.486 84.218v5.939M45.442 84.218v5.939M48.397 84.218v5.939M51.353 84.218v5.939M72.042 84.218v5.939M74.997 84.218v5.939M97.533 84.218v5.939M100.489 84.218v5.939M103.444 86.074v4.083M27.531 84.218 20.8 90.157h33.139v-5.94z" stroke="#D62970" stroke-width="1.11" stroke-linecap="round" stroke-linejoin="round"/>
        <path d="M79.061 49.698h0v-.668a3.518 3.518 0 0 1 3.51-3.527 3.518 3.518 0 0 1 3.51 3.527v.668h-7.02 0zM75.736 13.693v22.271" stroke="#FC7AB5" stroke-width="1.11" stroke-linecap="round" stroke-linejoin="round"/>
        <path stroke="#D62970" stroke-width="1.11" stroke-linecap="round" stroke-linejoin="round" d="M61.697 34.479v4.826"/>
        <path d="M69.825 49.698h9.236v-.668a3.48 3.48 0 0 0-3.476-3.467c-1.907 0-3.525 1.911-3.525 3.827 0-1.916-1.378-3.827-3.284-3.827a3.535 3.535 0 0 0-.79.093" stroke="#FC7AB5" stroke-width="1.11" stroke-linecap="round" stroke-linejoin="round"/>
        <path stroke="#D62970" stroke-width="1.11" stroke-linecap="round" stroke-linejoin="round" d="M69.825 49.698h16.256"/>
        <path stroke="#FC7AB5" stroke-width="1.11" stroke-linecap="round" stroke-linejoin="round" d="m85.453 46.973-2.505-10.901-14.55-.023-1.857 8.367"/>
        <path d="M41.008 106.704v-.742c0-2.973-2.398-5.383-5.357-5.383-2.958 0-5.357 2.41-5.357 5.383v.813M99.011 106.86v-.913c0-2.973-2.398-5.382-5.357-5.382-2.958 0-5.357 2.41-5.357 5.382v.913M65.761 106.775v-1.114c0-3.997-3.225-7.238-7.204-7.238-3.979 0-7.204 3.24-7.204 7.238v1.114M27.742 78.093c-4.833-5.363 2.168-6.585 2.985-9.725.82 3.144 7.82 4.362 2.985 9.725" stroke="#D62970" stroke-width="1.11" stroke-linecap="round" stroke-linejoin="round"/>
        <path d="M55.878 66.772H33.62v4.874c1.848 1.51 2.86 3.478.048 6.447h0v6.128H53.92V70.488h-.672l2.63-3.716z" stroke="#D62970" stroke-width="1.11" stroke-linecap="round" stroke-linejoin="round"/>
        <path d="M66.87 56.008h0v6.31h12.62c-1.057-4.618 5.719-6.581 6.59-10.122v-2.498H69.826" stroke="#FC7AB5" stroke-width="1.11" stroke-linecap="round" stroke-linejoin="round"/>
        <path d="M92.8 62.318c-.25 1.113-1.034 2.598-2.408 4.083h-8.497c-1.375-1.485-2.158-2.97-2.409-4.083H66.869v3.445l3.392 4.721h-.805v13.734h8.127V79.02h17.364v5.197h6.28v-21.9h-8.426z" stroke="#FC7AB5" stroke-width="1.11" stroke-linecap="round" stroke-linejoin="round"/>
        <path stroke="#D62970" stroke-width="1.11" stroke-linecap="round" stroke-linejoin="round" d="M53.939 70.484h15.517v19.673H53.939zM70.26 70.484H53.267l3.4-4.825h10.192z"/>
        <path stroke="#D62970" stroke-width="1.11" stroke-linecap="round" stroke-linejoin="round" d="M56.894 56.008h9.975v9.651h-9.975z"/>
        <g stroke="#D62970" stroke-linecap="round" stroke-linejoin="round" stroke-width="1.11">
            <path d="m66.286 44.642-6.418-2.617M69.57 49.193l-11.9-4.867M69.43 52.344l-14.087-5.772M67.896 54.927 53.84 49.16M63.537 56.345l-9.258-3.79"/>
        </g>
        <path d="M56.625 56.167c-8.331-9.246 3.665-11.662 5.076-17.074 1.411 5.416 13.547 7.832 5.216 17.074M81.825 66.267c-6.994-7.761 3.07-9.524 4.256-14.071 1.185 4.547 11.378 6.31 4.385 14.071M95.72 79.021H76.69l5.142-4.825h8.626zM82.017 66.401h8.497v7.795h-8.497zM94.947 90.157h13.385l-7.038-5.94h-6.347zM69.456 84.218h8.128v5.939h-8.128z" stroke="#D62970" stroke-width="1.11" stroke-linecap="round" stroke-linejoin="round"/>
        <path stroke="#D62970" stroke-width="1.11" stroke-linecap="round" stroke-linejoin="round" d="M77.583 79.021h17.364v11.135H77.583zM86.081 49.698v2.598"/>
    </g>
</svg>
