<svg width="112" height="122" viewBox="0 0 112 122" xmlns="http://www.w3.org/2000/svg">
    <g fill="none" fill-rule="evenodd">
        <path fill="#308CF9" fill-rule="nonzero" d="M40.337 116.471h.89v5.428h-.697l-2.553-3.683v3.683h-.89v-5.428h.712l2.553 3.683v-3.683zM43.215 121.046h2.399v.853h-3.289v-5.428h3.25v.853h-2.36v1.411h2.167v.846h-2.167v1.465zM47.556 121.899l-1.547-5.428h.936l1.137 4.242 1.23-4.242h.82l1.223 4.242 1.146-4.242h.936l-1.548 5.428H50.86l-1.16-3.962-1.161 3.962h-1.03zM60.238 116.471l-1.888 3.272v2.156h-.89v-2.156l-1.888-3.272h1.014l1.323 2.404 1.316-2.404zM62.97 122a2.771 2.771 0 0 1-1.997-.814 2.783 2.783 0 0 1-.812-2 2.822 2.822 0 0 1 1.735-2.615 2.812 2.812 0 0 1 3.073.61 2.827 2.827 0 0 1 .61 3.08 2.816 2.816 0 0 1-2.61 1.739zm0-.869a1.855 1.855 0 0 0 1.362-.55c.37-.368.571-.873.557-1.396a1.867 1.867 0 0 0-.557-1.388 1.832 1.832 0 0 0-1.362-.558 1.859 1.859 0 0 0-1.37.558 1.89 1.89 0 0 0-.55 1.388 1.94 1.94 0 0 0 .55 1.396c.363.362.858.561 1.37.55zM69.678 121.899l-1.16-1.977h-1.053v1.977h-.89v-5.428h2.175c.96.003 1.739.782 1.74 1.745a1.71 1.71 0 0 1-1.075 1.574l1.23 2.109h-.967zm-2.201-4.606v1.815h1.273a.906.906 0 0 0 0-1.815h-1.277.004zM75.42 121.899h-1.06l-2.128-2.582v2.582h-.89v-5.428h.89v2.435l2.058-2.435h1.037l-2.19 2.644z"/>
        <path d="M46.616 80.498c-10.91-.725-20.168-5.23-24.83-11.537M77.575 68.965c-2.879 3.877-7.475 7.067-13.12 9.126M77.61 68.965c5.099 6.897 15.692 11.63 27.933 11.63a47.298 47.298 0 0 0 6.457-.45M43.505 80.25v9.692M40.41 79.863v23.261M37.315 79.087v25.587M34.22 77.924v25.2M31.125 76.761v27.526M28.03 74.823v28.301M24.935 72.497v31.79M21.84 69.395v34.116M99.217 80.25v24.424M96.122 79.863v23.261M93.027 79.087v25.587M89.932 77.924v25.2M86.837 76.494v27.793M83.742 74.823v28.301M80.647 72.497v31.79M77.552 69.007v34.117M21.782 69.007C17.634 74.935 9.668 79.257.19 80.332" stroke="#98CDF9" stroke-width="1.166" stroke-linecap="round" stroke-linejoin="round"/>
        <circle fill="#98CDF9" fill-rule="nonzero" cx="77.61" cy="65.146" r="1"/>
        <circle fill="#98CDF9" fill-rule="nonzero" cx="21.743" cy="65.115" r="1"/>
        <path d="M3.107 103.03a3.527 3.527 0 0 0 3.095 1.768 3.527 3.527 0 0 0 3.095-1.771M9.32 103.03a3.612 3.612 0 0 0 6.214 0" stroke="#308CF9" stroke-width="1.166" stroke-linecap="round" stroke-linejoin="round"/>
        <path d="M15.53 103.03a3.612 3.612 0 0 0 6.213 0M21.743 103.03a3.612 3.612 0 0 0 6.213 0M27.956 103.03a3.612 3.612 0 0 0 6.214 0" stroke="#308CF9" stroke-width="1.166" stroke-linecap="round" stroke-linejoin="round"/>
        <path d="M34.166 103.03a3.612 3.612 0 0 0 6.213 0M40.38 103.03a3.612 3.612 0 0 0 6.213 0M46.593 103.03a3.612 3.612 0 0 0 6.213 0M0 104.798a3.53 3.53 0 0 0 3.095-1.756" stroke="#308CF9" stroke-width="1.166" stroke-linecap="round" stroke-linejoin="round"/>
        <path d="M52.806 103.03a3.612 3.612 0 0 0 6.214 0" stroke="#308CF9" stroke-width="1.166" stroke-linecap="round" stroke-linejoin="round"/>
        <path d="M59.016 103.03a3.612 3.612 0 0 0 6.213 0M65.23 103.03a3.612 3.612 0 0 0 6.213 0" stroke="#308CF9" stroke-width="1.166" stroke-linecap="round" stroke-linejoin="round"/>
        <path d="M71.388 103.03a3.612 3.612 0 0 0 6.214 0" stroke="#308CF9" stroke-width="1.166" stroke-linecap="round" stroke-linejoin="round"/>
        <path d="M77.598 103.03a3.612 3.612 0 0 0 6.213 0M83.811 103.03a3.612 3.612 0 0 0 6.214 0M90.029 103.03a3.612 3.612 0 0 0 6.213 0M96.258 103.03a3.612 3.612 0 0 0 6.213 0M102.471 103.03a3.612 3.612 0 0 0 6.213 0M111.787 104.79a3.53 3.53 0 0 1-3.095-1.756M68.46 51.88l-1.115-2.012 2.484-3.75 2.46-.182c.14 2.885-1.636 5.944-3.83 5.944zM59.132 24.955l1.896-1.938s-.944-4.652-5.529-4.652-5.529 4.652-5.529 4.652l1.803 1.938M50.044 22.986l-1.706-.431M51.998 19.516l-2.871-2.159M61.155 22.986l3.409-.865M59.198 19.516l2.87-2.159M55.499 13.957v4.264" stroke="#308CF9" stroke-width="1.166" stroke-linecap="round" stroke-linejoin="round"/>
        <path d="M59.19 24.374a3.689 3.689 0 0 0-1.787-3.334 3.673 3.673 0 0 0-3.777 0 3.689 3.689 0 0 0-1.787 3.334v8.579h7.35v-8.579z" stroke="#308CF9" stroke-width="1.166" stroke-linecap="round" stroke-linejoin="round"/>
        <path d="M51.839 26.475c.824 1.597 2.279 3.722 3.695 3.985 1.547-.387 3.037-2.55 3.656-4.005M43.505 89.942H67.88v3.102H43.505zM64.397 73.66v16.282M46.601 77.645v12.297M67.879 97.475v7.199" stroke="#308CF9" stroke-width="1.166" stroke-linecap="round" stroke-linejoin="round"/>
        <path stroke="#308CF9" stroke-width="1.166" stroke-linecap="round" stroke-linejoin="round" d="m43.505 93.044.016-3.102h24.362v3.102M43.486 104.798l.016-7.381M40.41 93.044h30.402v4.265H40.41zM52.791 97.696v5.815M58.981 97.696v5.815M64.401 73.4l-9.212 3.264 3.99-43.7 5.222 3.187zM73.071 41.311l.612 2.64-1.47 2.206-2.469.09M64.401 53.888v3.846l.039.077 4.016-5.931-1.122-2.012-2.933 4.02"/>
        <path d="M58.466 40.846C54.172 48.6 49.75 55.388 45.103 60.587l1.51 17.244c3.566-4.733 7.048-13.053 10.484-21.981l1.37-15.004z" stroke="#308CF9" stroke-width="1.166" stroke-linecap="round" stroke-linejoin="round"/>
        <path d="M58.822 36.97c-4.577 7.19-9.211 12.859-12.957 17.984l.217 4.35c4.295-5.04 8.407-11.452 12.404-18.667l.336-3.668zM50.45 32.953a50.181 50.181 0 0 1-2.592 10.595c-1.88 4.459-3.946-2.109-4.956-11.34 3.66-1.818 5.95-5.198 6.117-6.408l1.431 7.153zM55.596 20.819c-.26 2.271-1.548 3.512-3.548 3.962M55.596 20.819c.259 2.271 1.485 3.512 3.482 3.962M47.39 8.141H41.2h6.19zM48.558 5.04h-8.511 8.511zM42.534 8.141h3.695l-.158 3.877-2.082 2.113c-1.86-1.093-2.283-3.276-1.455-5.99z" stroke="#308CF9" stroke-width="1.166" stroke-linecap="round" stroke-linejoin="round"/>
        <path d="m46.07 12.007-2.08 2.124 1.16 16.651c1.934-1.617 2.878-2.326 3.869-4.993L46.07 12.007zM3.107 106.911a3.527 3.527 0 0 0 3.095 1.768 3.527 3.527 0 0 0 3.095-1.772M9.32 106.911a3.612 3.612 0 0 0 6.214 0" stroke="#308CF9" stroke-width="1.166" stroke-linecap="round" stroke-linejoin="round"/>
        <path d="M15.53 106.911a3.612 3.612 0 0 0 6.213 0M21.743 106.911a3.612 3.612 0 0 0 6.213 0M27.956 106.911a3.612 3.612 0 0 0 6.214 0" stroke="#308CF9" stroke-width="1.166" stroke-linecap="round" stroke-linejoin="round"/>
        <path d="M34.166 106.911a3.612 3.612 0 0 0 6.213 0M40.38 106.911a3.612 3.612 0 0 0 6.213 0M46.593 106.911a3.612 3.612 0 0 0 6.213 0M0 108.683a3.53 3.53 0 0 0 3.095-1.756" stroke="#308CF9" stroke-width="1.166" stroke-linecap="round" stroke-linejoin="round"/>
        <path d="M52.806 106.911a3.612 3.612 0 0 0 6.214 0" stroke="#308CF9" stroke-width="1.166" stroke-linecap="round" stroke-linejoin="round"/>
        <path d="M59.016 106.911a3.612 3.612 0 0 0 6.213 0M65.23 106.911a3.612 3.612 0 0 0 6.213 0" stroke="#308CF9" stroke-width="1.166" stroke-linecap="round" stroke-linejoin="round"/>
        <path d="M71.388 106.911a3.612 3.612 0 0 0 6.214 0" stroke="#308CF9" stroke-width="1.166" stroke-linecap="round" stroke-linejoin="round"/>
        <path d="M77.598 106.911a3.612 3.612 0 0 0 6.213 0M83.811 106.911a3.612 3.612 0 0 0 6.214 0M90.029 106.911a3.612 3.612 0 0 0 6.213 0M96.258 106.911a3.612 3.612 0 0 0 6.213 0M102.471 106.911a3.612 3.612 0 0 0 6.213 0M111.787 108.675a3.53 3.53 0 0 1-3.095-1.756" stroke="#308CF9" stroke-width="1.166" stroke-linecap="round" stroke-linejoin="round"/>
        <ellipse stroke="#308CF9" stroke-width="1.166" stroke-linecap="round" stroke-linejoin="round" cx="44.302" cy="2.497" rx="2.492" ry="2.497"/>
        <path d="m46.763 87.155 10.23-4.586-.074-6.521 7.475-2.648V36.15l-5.212-3.198H50.45a50.158 50.158 0 0 1-2.592 10.595c-.41.97-.863 1.42-1.25 1.43v8.918M64.401 54.295l8.663-13.073-5.37-3.198L64.4 42.59z" stroke="#308CF9" stroke-width="1.166" stroke-linecap="round" stroke-linejoin="round"/>
    </g>
</svg>
