<svg width="109" height="117" viewBox="0 0 109 117" xmlns="http://www.w3.org/2000/svg">
    <g fill="none" fill-rule="evenodd">
        <path stroke="#FFB6E9" stroke-width="1.174" stroke-linecap="round" stroke-linejoin="round" d="M62.297 103.26h46.233M0 103.26h46.625M109 99.914c-.744-1.167-2.037-1.868-3.448-1.907h0v-.039c0-2.45-4.035-4.474-9.011-4.474-.588 0-1.215.039-1.803.078-.078-4.747-4.545-8.599-10.108-8.599-2.39 0-4.702.779-6.622 2.18M42.903 72.64c-9.56-.817-21.315 5.37-25.86 13.345-6.817-1.673-10.813 4.319-10.422 7.82-4.388.078-6.308 3.074-6.425 6.07"/>
        <path d="M62.61 63.808a97.454 97.454 0 0 0 5.368 15.096M55.205 10.194c1.45 22.099 3.526 37.973 6.583 50.424M39.024 82.133c-3.8 7.51-8.463 14.046-13.949 21.127H37.81M45.959 63.808c-1.41 5.136-3.174 10.194-5.368 15.057M53.442 10.194c-1.45 22.138-3.565 38.012-6.7 50.501" stroke="#EF7BC6" stroke-width="1.174" stroke-linecap="round" stroke-linejoin="round"/>
        <path d="M37.77 103.26c0-8.949 7.601-16.224 16.612-16.224 9.012 0 16.535 7.275 16.535 16.224" stroke="#EF7BC6" stroke-width="1.174" stroke-linecap="round" stroke-linejoin="round"/>
        <path d="M97.246 99.914a4.6 4.6 0 0 0-5.172-2.101c-.078-3.307-3.37-5.992-7.405-5.992a8.18 8.18 0 0 0-1.96.234c-.861-3.074-3.917-5.37-7.522-5.37-.9-.039-1.841.117-2.703.39" stroke="#FFB6E9" stroke-width="1.174" stroke-linecap="round" stroke-linejoin="round"/>
        <path stroke="#EF7BC6" stroke-width="1.174" stroke-linecap="round" stroke-linejoin="round" d="m83.102 102.443-.862.817M81.143 99.953l-3.331 3.307M79.027 97.657l-5.485 5.447M77.381 94.895l-6.543 6.497M75.54 92.288l-5.564 5.564M73.816 89.642l-5.289 5.253M72.131 86.88l-5.524 5.486M70.564 84.04l-6.269 6.225M68.135 82.094l-6.583 6.498M63.668 82.094l-5.446 5.408M59.241 82.094l-5.015 4.98M66.332 75.013l-3.957 3.969M38.632 98.163l-5.133 5.097M54.735 82.172l-5.877 5.836M65.157 71.823l-5.681 5.641M50.347 82.133 29.072 103.26M64.021 68.555l-5.015 4.98M45.802 82.211l-19.277 19.181M63.002 65.17l-4.506 4.435M41.453 82.133l-5.407 5.408M49.407 74.274l-4.624 4.552M59.946 63.808l-1.92 1.867M49.994 69.255l-9.246 9.182M61.2 58.127l-2.547 2.568M51.052 63.808l-7.287 7.237M60.416 54.548l-6.112 6.07M46.625 63.808l-.941.934M59.672 50.852l-9.913 9.843M59.084 47.039 47.212 58.828M58.418 43.304l-9.991 9.921M57.909 39.374l-8.502 8.443M57.439 35.445l-7.21 7.158M57.008 31.476l-6.073 6.07M56.616 27.507l-5.094 5.019M56.224 23.461l-4.192 4.163M55.871 19.415l-3.252 3.229M55.558 15.329l-2.586 2.568M55.284 11.205l-1.959 1.907M59.672 78.982H48.819l1.841-15.174h7.131zM71.7 82.094H36.83M38.789 78.982H69.74M64.256 63.808H44.274M45.058 60.695h18.414M56.42 10.116h-3.918V6.303c-.04-.895.666-1.634 1.567-1.673h.04-.08.471c.94 0 1.92.74 1.92 1.673v3.813h0zM54.461 0v4.28"/>
        <circle fill="#FFB6E9" fill-rule="nonzero" transform="rotate(-74.003 12.78 71.446)" cx="12.78" cy="71.446" r="1"/>
        <path stroke="#FFB6E9" stroke-width="1.174" stroke-linecap="round" stroke-linejoin="round" d="m29.826 32.924 5.7-7.572 7.625 5.66-5.7 7.573zM17.591 53.28l7.072-.91.915 7.023-7.071.909zM28.367 67.582a35.86 35.86 0 0 0 3.017-3.385c6.895-8.793 7.444-18.364 6.112-25.601M11.793 75.636a40.72 40.72 0 0 0-.627 3.813"/>
        <path d="M18.532 60.19c-2.39 3.307-3.212 4.552-4.427 7.664" stroke="#FFB6E9" stroke-width="1.174" stroke-linecap="round" stroke-linejoin="round"/>
        <path d="M46.899 111.43c.47 0 .94.156 1.293.506.705.7.705 1.829 0 2.568-.353.35-.823.545-1.293.506h-1.136v1.867h-.901v-5.447h2.037zm0 2.724a.95.95 0 0 0 .94-.934.95.95 0 0 0-.94-.934h-1.136v1.907h1.136v-.04zM52.502 116.877l-.392-1.089h-2.35l-.353 1.09h-.98l1.998-5.448h1.097l1.998 5.447h-1.018zm-2.39-1.945h1.724l-.862-2.451-.862 2.451zM57.203 116.877l-1.175-1.984H54.97v1.984h-.901v-5.447h2.194c.98 0 1.763.779 1.763 1.751 0 .7-.43 1.323-1.097 1.595l1.254 2.101h-.98zm-2.233-4.59v1.828h1.293c.51 0 .901-.428.901-.895a.884.884 0 0 0-.9-.895H54.97v-.039zM58.888 111.43h.901v5.447h-.9zM60.495 115.632l.783-.467c.196.584.745.973 1.372.934.666 0 1.018-.272 1.018-.7a.566.566 0 0 0-.274-.506c-.313-.155-.627-.311-.98-.389a4.23 4.23 0 0 1-1.136-.506c-.352-.233-.548-.661-.548-1.09 0-.427.156-.855.509-1.127a2.033 2.033 0 0 1 1.254-.428c.823-.04 1.567.466 1.92 1.206l-.745.428c-.156-.467-.627-.778-1.136-.778-.51 0-.862.272-.862.661s.274.584 1.097.856c.196.078.353.117.47.156.118.038.235.077.392.155a.814.814 0 0 1 .392.234c.352.272.588.661.548 1.128 0 .467-.196.895-.548 1.167a2.03 2.03 0 0 1-1.41.428c-1.059-.039-1.803-.506-2.116-1.362z" fill="#EF7BC6" fill-rule="nonzero"/>
        <path d="M69.584 82.133c3.801 7.51 8.385 14.046 14.262 21.127h0-12.812" stroke="#EF7BC6" stroke-width="1.174" stroke-linecap="round" stroke-linejoin="round"/>
    </g>
</svg>
