<svg width="119" height="122" viewBox="0 0 119 122" xmlns="http://www.w3.org/2000/svg">
    <g fill="none" fill-rule="evenodd">
        <path d="m31.233 121.88-1.295-2.194H28.78v2.194h-.993v-6.022h2.418a1.944 1.944 0 0 1 1.942 1.936 1.897 1.897 0 0 1-1.2 1.746l1.373 2.34h-1.088zm-2.452-5.093v2.013h1.425c.557 0 1.01-.45 1.01-1.006s-.453-1.007-1.01-1.007H28.78zM33.081 115.858h.993v6.022h-.993zM38.115 121.992a3.102 3.102 0 0 1-2.228-.903 3.078 3.078 0 0 1-.906-2.22 3.131 3.131 0 0 1 1.936-2.9 3.152 3.152 0 0 1 3.43.677c.9.897 1.168 2.246.68 3.417a3.143 3.143 0 0 1-2.912 1.929zm0-.964a2.077 2.077 0 0 0 1.524-.61 2.1 2.1 0 0 0 .622-1.55 2.065 2.065 0 0 0-.622-1.539 2.05 2.05 0 0 0-1.52-.62 2.08 2.08 0 0 0-1.528.62 2.09 2.09 0 0 0-.613 1.54 2.146 2.146 0 0 0 .613 1.548c.404.401.954.622 1.524.611zM46.69 115.858a2.725 2.725 0 0 1 2.064.86 3.183 3.183 0 0 1 0 4.302 2.725 2.725 0 0 1-2.064.86h-2.375v-6.022h2.375zm0 5.076a1.804 1.804 0 0 0 1.39-.585 2.286 2.286 0 0 0 0-2.96 1.804 1.804 0 0 0-1.39-.585h-1.382v4.147h1.382v-.017zM51.482 120.95h2.677v.947h-3.67v-6.022h3.627v.947h-2.634v1.548h2.405v.938H51.47v1.643zM56.91 120.89l.863-.498c.194.421.633.676 1.097.636.69 0 1.079-.353 1.079-.972v-4.198h.993v4.198a1.803 1.803 0 0 1-.587 1.437c-.42.344-.951.522-1.494.499a1.966 1.966 0 0 1-1.952-1.101zM65.86 121.88l-.432-1.213h-2.59l-.432 1.213h-1.08l2.194-6.022h1.191l2.185 6.022h-1.07.034zm-2.669-2.15h1.922l-.959-2.72-.963 2.72zM71.205 115.858h.993v6.022h-.777l-2.85-4.086v4.086h-.993v-6.022h.777l2.85 4.086zM74.4 120.95h2.677v.947h-3.67v-6.022h3.627v.947H74.4v1.548h2.418v.938H74.4zM77.983 115.858h.993v6.022h-.993zM83.63 121.88l-1.295-2.194h-1.174v2.194h-.993v-6.022h2.418a1.944 1.944 0 0 1 1.943 1.936 1.897 1.897 0 0 1-1.2 1.746l1.372 2.34h-1.088.018zm-2.452-5.093v2.013h1.425c.558 0 1.01-.45 1.01-1.006s-.452-1.007-1.01-1.007h-1.425zM88.268 121.992a3.102 3.102 0 0 1-2.228-.903 3.078 3.078 0 0 1-.907-2.22 3.135 3.135 0 0 1 1.937-2.907 3.156 3.156 0 0 1 3.436.677c.902.898 1.17 2.25.68 3.423a3.148 3.148 0 0 1-2.918 1.93zm0-.964c.57.014 1.119-.207 1.52-.61.413-.41.638-.97.621-1.55a2.06 2.06 0 0 0-.621-1.539 2.046 2.046 0 0 0-1.52-.62 2.08 2.08 0 0 0-1.529.62 2.09 2.09 0 0 0-.613 1.54 2.146 2.146 0 0 0 .613 1.548c.406.402.957.623 1.529.611z" fill="#1F9DBF" fill-rule="nonzero"/>
        <path d="M67.44 6.078C67.44 2.71 64.85 0 61.629 0s-5.812 2.705-5.812 6.069v.047h0v9.454h11.619V6.108h0a.184.184 0 0 0 .004-.03z" stroke="#1F9DBF" stroke-width="1.29" stroke-linecap="round" stroke-linejoin="round"/>
        <path d="M65.73 6.065a4.087 4.087 0 0 0-1.994-3.699 4.12 4.12 0 0 0-4.215 0 4.087 4.087 0 0 0-1.994 3.699v9.505h8.203V6.065z" stroke="#1F9DBF" stroke-width="1.29" stroke-linecap="round" stroke-linejoin="round"/>
        <path d="M57.527 8.396c.92 1.772 2.543 4.13 4.123 4.422 1.727-.43 3.39-2.83 4.08-4.443" stroke="#1F9DBF" stroke-width="1.29" stroke-linecap="round" stroke-linejoin="round"/>
        <path stroke="#8ADBDB" stroke-width="1.29" stroke-linecap="round" stroke-linejoin="round" d="M72.742 49.563h17.732M99.735 49.563h8.203M99.653 49.55c.083-.332.128-.673.134-1.015 0-1.591-1.11-3.067-2.798-3.905a6.44 6.44 0 0 0-5.67-4.77 6.45 6.45 0 0 0-6.419 3.707 4.244 4.244 0 0 0-4.037 4.258c.026.586.133 1.165.32 1.72M10.574 103.944 28.31 89.582M29.251 60.665a23.025 23.025 0 0 1 22.3-7.338M31.276 92.653a22.815 22.815 0 0 1-6.018-25.468"/>
        <path stroke="#1F9DBF" stroke-width="1.29" stroke-linecap="round" stroke-linejoin="round" d="M50.947 78.812h21.588v3.011H50.947z"/>
        <path d="M17.814 104.073 38.012 87.46a6.495 6.495 0 0 1 8.246 0l2.016 1.66 1.17.951M119 101.922 90.871 78.8a7.361 7.361 0 0 0-9.352 0l-2.56 2.103-5.095 4.15" stroke="#8ADBDB" stroke-width="1.29" stroke-linecap="round" stroke-linejoin="round"/>
        <path stroke="#1F9DBF" stroke-width="1.29" stroke-linecap="round" stroke-linejoin="round" d="M86.562 107.152 73.718 96.447H49.539l-12.719 10.68M49.652 81.822H73.83v14.624H49.652zM53.106 81.822v14.625M56.56 81.822v14.625M60.014 81.822v14.625M63.468 81.822v14.625M66.922 81.822v14.625M70.376 81.822v14.625M27.2 15.583v4.302M96.281 15.583v4.302M72.595 62.179l-6.865-4.31V15.583h6.908zM53.132 59.946l.026 18.866h17.218v-9.188zM69.081 15.583v44.303M51.81 15.613l13.92-.03H51.81z"/>
        <path d="M65.786 57.869 65.73 15.57h0l.056 10.074c-4.658-.357-8.363-1.26-10.953-2.516v27.915l-3.023-1.888v10l19.861 11.183V61.53l-5.885-3.66z" stroke="#1F9DBF" stroke-width="1.29" stroke-linecap="round" stroke-linejoin="round"/>
        <path d="M15.97 67.185a4.076 4.076 0 0 1-.094-.632A2.782 2.782 0 0 1 18.35 63.8a3.428 3.428 0 0 1-.026-.404c0-2.61 2.707-4.641 6.044-4.641 2.643 0 4.883 1.118 5.708 3.269h.065c2.668 0 4.831 1.656 4.831 3.918.035.424-.033.85-.199 1.243M0 67.198h18.565M25.473 67.198h17.702" stroke="#8ADBDB" stroke-width="1.29" stroke-linecap="round" stroke-linejoin="round"/>
        <circle fill="#8ADBDB" fill-rule="nonzero" cx="94.912" cy="49.563" r="1"/>
        <circle fill="#8AD1DD" fill-rule="nonzero" cx="48.309" cy="67.198" r="1"/>
        <path d="M65.73 25.657c-11.73-.9-16.674-5.256-18.807-10.03l18.803-.044v10.074h.004z" stroke="#1F9DBF" stroke-width="1.29" stroke-linecap="round" stroke-linejoin="round"/>
        <path d="M51.379 21.184v27.712l3.454 2.151v-27.91c-1.296-.603-2.59-1.205-3.454-1.953z" stroke="#1F9DBF" stroke-width="1.29" stroke-linecap="round" stroke-linejoin="round"/>
        <path d="M65.786 26.203 65.73 15.57h6.908v10.052c12.422-1.316 23.88-4.89 33.595-10.052H16.985a93.924 93.924 0 0 0 34.39 10.13v-4.516c.863.748 2.158 1.346 3.453 1.952v2.757" stroke="#1F9DBF" stroke-width="1.29" stroke-linecap="round" stroke-linejoin="round"/>
    </g>
</svg>
