<svg width="137" height="87" viewBox="0 0 137 87" xmlns="http://www.w3.org/2000/svg">
    <g fill="none" fill-rule="evenodd">
        <path d="m61.804 86.904-1.112-1.885h-1.009v1.885h-.823V81.73h2.077a1.67 1.67 0 0 1 1.668 1.662 1.63 1.63 0 0 1-1.03 1.5l1.178 2.01H61.804zm-2.106-4.375v1.73h1.224a.866.866 0 1 0 0-1.73h-1.224zM65.786 87a2.663 2.663 0 0 1-1.913-.776 2.645 2.645 0 0 1-.779-1.907 2.694 2.694 0 0 1 1.664-2.497 2.71 2.71 0 0 1 2.95.581 2.687 2.687 0 0 1 .584 2.941A2.703 2.703 0 0 1 65.786 87zm0-.828c.489.012.961-.178 1.305-.525a1.8 1.8 0 0 0 .534-1.33 1.77 1.77 0 0 0-.534-1.323 1.757 1.757 0 0 0-1.305-.532 1.786 1.786 0 0 0-1.312.532c-.35.35-.541.829-.527 1.323-.01.496.179.975.527 1.33.347.346.821.535 1.312.525zM74.224 81.73v5.174h-.852v-3.695l-1.58 2.586h-.104l-1.579-2.608v3.695h-.868v-5.173h.92l1.564 2.586 1.572-2.586h.912zM76.115 86.09h2.299v.814h-3.152V81.73h3.115v.813h-2.262v1.345h2.076v.805h-2.076v1.397z" fill="#FC6E47" fill-rule="nonzero"/>
        <path d="M.282 61.865C-.92 57.18 1.732 51.748 8.067 51.253c.83-5.542 3.923-7.91 7.148-8.816M137 60.986c0-6.108-3.2-11.13-10.096-11.455-.33-4.134-3.614-7.39-7.611-7.39-.47 0-.94.047-1.402.137a6.84 6.84 0 0 0-4.82-4.707M113.083 31.345l.01-7.328H80.42l-2.21 2.17M113.068 46.464l.011-12.012M113.049 60.875l.015-11.285M113.094 29.068l-2.288 2.277M113.094 25.004l-6.485 6.341M109.931 24.017l-7.515 7.328M105.746 24.017l-7.523 7.328M101.534 24.017l-7.508 7.328M97.311 24.017l-7.478 7.328M93.029 24.088l-7.386 7.216M88.832 24.058l-7.348 7.205M84.572 24.058l-4.757 4.741M113.049 58.495l-2.536 2.45M112.99 54.383l-6.625 6.562M113.068 50.171l-8.587 8.424M109.512 49.513l-6.64 6.466M105.264 49.513l-3.986 3.868M101 49.513l-1.372 1.334M113.046 45.766l-.797.758M113.046 41.683l-5.042 4.874M113.094 37.471l-9.287 9.086M111.9 34.363 99.613 46.557M107.707 34.363 96.369 45.604M103.499 34.371l-8.742 8.676M99.313 34.371l-6.132 6.089M95.161 34.363l-3.534 3.518M90.964 34.389l-1.001 1.013M98.79 49.513l7.182 11.454M89.295 34.363l7.645 12.194M114.658 49.513H90.463M95.009 46.557h19.649" stroke="#FFA28D" stroke-width="1.11" stroke-linecap="round" stroke-linejoin="round"/>
        <path stroke="#FC6E47" stroke-width="1.11" stroke-linecap="round" stroke-linejoin="round" d="M6.77 63.923h123.089M59.046 22.539v8.868"/>
        <path stroke="#FFA28D" stroke-width="1.11" stroke-linecap="round" stroke-linejoin="round" d="M114.581 34.363H77.765M39.414 19.602h34.48c3.267 5.173 5.143 8.129 7.675 11.824h32.997"/>
        <path stroke="#FC6E47" stroke-width="1.11" stroke-linecap="round" stroke-linejoin="round" d="m15.182 60.986.033-11.473M15.256 31.367l.034-11.736M15.219 46.283l.03-11.842M14.185 16.627h38.929M14.185 31.407h51.534M14.185 46.557h63.769M14.185 49.513h68.218M14.185 34.363h55.613M14.185 19.583h43.007M70.539 49.572v11.395M58.304 49.513v11.454M46.029 49.513v11.454M33.794 49.513v11.454M21.6 49.513v11.454M70.539 35.198v10.989M58.304 34.733v11.454M46.029 34.733v11.454M21.6 34.733v11.454M33.794 34.733v11.454M46.069 19.953v11.454M21.6 19.953v11.395M33.794 19.953v11.362M46.029 7.216v9.411M33.794 3.078v13.549M21.6 3.078v13.549M43.374 2.956H15.308L14.678 0h26.76zM55.342 55.074c0-1.735-1.411-3.141-3.151-3.141a3.146 3.146 0 0 0-3.152 3.14v5.913h6.303v-5.912zM43.066 55.074c0-1.735-1.41-3.141-3.151-3.141a3.146 3.146 0 0 0-3.151 3.14v5.913h6.302v-5.912zM55.342 40.567c0-1.734-1.411-3.14-3.151-3.14a3.146 3.146 0 0 0-3.152 3.14v6.008h6.303v-6.008zM43.066 40.567c0-1.734-1.41-3.14-3.151-3.14a3.146 3.146 0 0 0-3.151 3.14v6.008h6.302v-6.008zM43.066 25.617c0-1.734-1.41-3.14-3.151-3.14a3.146 3.146 0 0 0-3.151 3.14v5.809h6.302v-5.809zM30.832 55.007c0-1.734-1.411-3.14-3.152-3.14a3.146 3.146 0 0 0-3.151 3.14v5.979h6.303v-5.979z"/>
        <circle fill="#FFA28D" fill-rule="nonzero" cx="73.991" cy="34.526" r="1"/>
        <circle fill="#FFA28D" fill-rule="nonzero" cx="86.86" cy="49.513" r="1"/>
        <path stroke="#FFA28D" stroke-width="1.11" stroke-linecap="round" stroke-linejoin="round" d="M90.063 60.967h30.528"/>
        <path stroke="#FC6E47" stroke-width="1.11" stroke-linecap="round" stroke-linejoin="round" d="m15.297 16.598.011-13.642h28.066l8.653 13.671h3.59l9.064 14.78h3.656l8.935 15.15h3.76l8.997 14.41"/>
    </g>
</svg>
