<svg width="132" height="92" viewBox="0 0 132 92" xmlns="http://www.w3.org/2000/svg">
    <g fill="none" fill-rule="evenodd">
        <path d="m52.861 90.67.779-.455c.179.592.743.977 1.354.926.677 0 1.012-.29 1.012-.722a.57.57 0 0 0-.273-.51 4.166 4.166 0 0 0-.965-.393 3.688 3.688 0 0 1-1.144-.502 1.268 1.268 0 0 1-.53-1.107 1.419 1.419 0 0 1 .515-1.154c.346-.291.786-.445 1.237-.432a2.014 2.014 0 0 1 1.899 1.209l-.755.44a1.168 1.168 0 0 0-1.144-.786c-.521 0-.856.267-.856.684 0 .416.264.596 1.097.855.21.07.358.118.452.157.093.04.233.087.389.157.14.054.27.128.389.22.365.256.576.682.56 1.13.015.457-.184.893-.537 1.178-.4.305-.893.458-1.393.432-1.035.024-1.798-.487-2.086-1.327zM61.624 86.419l-1.899 3.313v2.183h-.895v-2.183l-1.91-3.313h1.02l1.33 2.434 1.323-2.434h1.02zM64.348 86.419a2.44 2.44 0 0 1 1.86.785 2.932 2.932 0 0 1 0 3.926 2.44 2.44 0 0 1-1.86.785h-2.14v-5.496h2.14zm0 4.632c.475.016.933-.18 1.253-.534a2.106 2.106 0 0 0 0-2.7 1.616 1.616 0 0 0-1.253-.534h-1.245v3.768h1.245zM71.041 86.419h.895v5.496h-.7l-2.569-3.73v3.73h-.895v-5.496h.7l2.569 3.73zM73.92 91.055h2.413v.864h-3.308v-5.496h3.269v.852H73.92v1.429h2.18v.855h-2.18v1.484zM81.337 86.419l-1.899 3.313v2.183h-.895v-2.183l-1.899-3.313h1.02l1.33 2.434 1.324-2.434z" fill="#4EB75D" fill-rule="nonzero"/>
        <path stroke="#4EB75D" stroke-width="1.17" stroke-linecap="round" stroke-linejoin="round" d="m29.802 27.746-1.793-.754M30.553 31.459l-3.311-1.385M31.398 35.212l-4.919-2.061M32.172 38.941l-6.479-2.716M32.184 39.063c-1.086-5.74-2.288-11.384-3.432-16.095-4.794-1.892-13.72-1.962-19.752-.946 4.506 4.884 7.584 10.854 9.779 15.75h1.447a56.2 56.2 0 0 1 12.234 1.354l-.276-.063zM33.394 39.346c.3.07.603.145.903.22-.3-.075-.603-.146-.903-.22zM28.818 23.734l-3.545 14.269M53.912 45.729a68.574 68.574 0 0 1 0 0z"/>
        <path d="M49.675 44.759a104.098 104.098 0 0 0-3.393-25.335c-4.76-4.181-11.437-7.062-20.83-7.322 1.646 3.14 4.46 14.886 6.732 26.961a56.337 56.337 0 0 1 7.416 2.155l6.798 2.493a43.986 43.986 0 0 0 6.14 1.758 46.695 46.695 0 0 1-2.863-.71zM57.344 46.2l.226.023h0zM56.628 46.121l-.825-.098.825.098zM55.274 45.948c-.342-.05-.685-.102-1.027-.16.337.05.68.103 1.027.16z" stroke="#4EB75D" stroke-width="1.17" stroke-linecap="round" stroke-linejoin="round"/>
        <path stroke="#8CE095" stroke-width="1.17" stroke-linecap="round" stroke-linejoin="round" d="M91.154 41.304h6.615M115.669 41.304h13.794M63.83.361A65.065 65.065 0 0 1 70.707 0c31.41 0 57.348 22.619 61.294 51.903M47.208 4.455a60.298 60.298 0 0 1 7.91-2.559"/>
        <path d="M66.407 17.162c9.311-5.378 23.066-8.455 34.728-9.378M68.197 16.181v3.686M71.309 14.705v9.531M74.422 13.433v12.169M77.535 12.648v11.384M80.648 11.47v11.62M83.761 10.685v11.777M86.874 9.9v12.048M89.987 9.508v12.169M93.1 8.723v12.954M93.1 36.825v4.479M96.213 8.33v13.347M96.213 29.528v11.776M99.326 7.937v32.19M102.439 8.723v29.441M105.552 10.685v25.909M108.665 12.648v23.161M111.778 15.396v19.628M114.891 18.144v16.487M118.003 21.677v12.954M121.116 25.602v15.702M124.229 30.313v10.599M127.342 36.201v4.711" stroke="#8CE095" stroke-width="1.17" stroke-linecap="round" stroke-linejoin="round"/>
        <path d="M16.62 33.606a31.695 31.695 0 0 0-8.34 4.165M111.174 46.302l-18.26.031s8.708-13.225 28.358-11.521l-10.098 11.49zM45.725 18.737 39.091 41.03M46.678 21.135l-1.451-.601M47.519 24.88l-3.167-1.315M48.231 28.621l-4.642-1.974M48.749 32.229l-6.187-2.615M49.153 35.773l-7.556-3.16M49.488 39.357l-8.794-3.721M49.608 42.828l-9.813-4.169M72.683 26.74a49.78 49.78 0 0 1 5.919 19.562l9.965.039A238.594 238.594 0 0 0 98.995 22.16c-11.07-1.12-19.222.149-26.312 4.58z" stroke="#4EB75D" stroke-width="1.17" stroke-linecap="round" stroke-linejoin="round"/>
        <path d="M8.273 49.548V37.771h11.953a56.277 56.277 0 0 1 19.386 3.447l6.798 2.493a44.062 44.062 0 0 0 15.175 2.697l49.247-.122c3.926 0 6.37 5.617 6.37 5.617M3.125 52.5a3.543 3.543 0 0 0 3.113 1.79 3.543 3.543 0 0 0 3.112-1.794M9.374 52.5a3.628 3.628 0 0 0 3.124 1.794c1.283 0 2.47-.682 3.125-1.794" stroke="#4EB75D" stroke-width="1.17" stroke-linecap="round" stroke-linejoin="round"/>
        <path d="M15.62 52.5a3.628 3.628 0 0 0 3.124 1.794c1.282 0 2.47-.682 3.124-1.794M21.868 52.5a3.628 3.628 0 0 0 3.125 1.794c1.282 0 2.47-.682 3.125-1.794M28.118 52.5a3.628 3.628 0 0 0 3.124 1.794c1.282 0 2.47-.682 3.125-1.794M34.367 52.5a3.628 3.628 0 0 0 3.124 1.794c1.283 0 2.47-.682 3.125-1.794" stroke="#4EB75D" stroke-width="1.17" stroke-linecap="round" stroke-linejoin="round"/>
        <path d="M40.612 52.5a3.628 3.628 0 0 0 3.125 1.794c1.282 0 2.47-.682 3.124-1.794" stroke="#4EB75D" stroke-width="1.17" stroke-linecap="round" stroke-linejoin="round"/>
        <path d="M46.861 52.5a3.628 3.628 0 0 0 3.125 1.794c1.282 0 2.47-.682 3.125-1.794M0 54.29a3.546 3.546 0 0 0 3.113-1.778" stroke="#4EB75D" stroke-width="1.17" stroke-linecap="round" stroke-linejoin="round"/>
        <path d="M53.11 52.5a3.628 3.628 0 0 0 3.125 1.794c1.282 0 2.47-.682 3.125-1.794" stroke="#4EB75D" stroke-width="1.17" stroke-linecap="round" stroke-linejoin="round"/>
        <path d="M59.356 52.5a3.628 3.628 0 0 0 3.124 1.794c1.283 0 2.47-.682 3.125-1.794M65.605 52.5a3.628 3.628 0 0 0 3.125 1.794c1.282 0 2.47-.682 3.124-1.794" stroke="#4EB75D" stroke-width="1.17" stroke-linecap="round" stroke-linejoin="round"/>
        <path d="M71.8 52.5a3.628 3.628 0 0 0 3.124 1.794c1.283 0 2.47-.682 3.125-1.794" stroke="#4EB75D" stroke-width="1.17" stroke-linecap="round" stroke-linejoin="round"/>
        <path d="M78.045 52.5a3.628 3.628 0 0 0 3.125 1.794c1.282 0 2.47-.682 3.124-1.794M84.294 52.5a3.628 3.628 0 0 0 3.125 1.794c1.282 0 2.47-.682 3.125-1.794M93.664 54.286a3.546 3.546 0 0 1-3.113-1.778M34.367 55.64a3.628 3.628 0 0 0 3.124 1.794c1.283 0 2.47-.681 3.125-1.794" stroke="#4EB75D" stroke-width="1.17" stroke-linecap="round" stroke-linejoin="round"/>
        <path d="M40.612 55.64a3.628 3.628 0 0 0 3.125 1.794c1.282 0 2.47-.681 3.124-1.794" stroke="#4EB75D" stroke-width="1.17" stroke-linecap="round" stroke-linejoin="round"/>
        <path d="M46.861 55.64a3.628 3.628 0 0 0 3.125 1.794c1.282 0 2.47-.681 3.125-1.794" stroke="#4EB75D" stroke-width="1.17" stroke-linecap="round" stroke-linejoin="round"/>
        <path d="M53.11 55.64a3.628 3.628 0 0 0 3.125 1.794c1.282 0 2.47-.681 3.125-1.794" stroke="#4EB75D" stroke-width="1.17" stroke-linecap="round" stroke-linejoin="round"/>
        <path d="M59.356 55.64a3.628 3.628 0 0 0 3.124 1.794c1.283 0 2.47-.681 3.125-1.794M65.605 55.64a3.628 3.628 0 0 0 3.125 1.794c1.282 0 2.47-.681 3.124-1.794M71.854 55.64a3.628 3.628 0 0 0 3.125 1.794c1.282 0 2.47-.681 3.124-1.794" stroke="#4EB75D" stroke-width="1.17" stroke-linecap="round" stroke-linejoin="round"/>
        <path d="M78.1 55.64a3.628 3.628 0 0 0 3.124 1.794c1.282 0 2.47-.681 3.125-1.794M31.242 57.43a3.546 3.546 0 0 0 3.113-1.778M84.349 55.64a3.628 3.628 0 0 0 3.124 1.794c1.283 0 2.47-.681 3.125-1.794M90.598 55.64a3.628 3.628 0 0 0 3.125 1.794c1.282 0 2.47-.681 3.124-1.794M96.847 55.64a3.628 3.628 0 0 0 3.125 1.794c1.282 0 2.47-.681 3.124-1.794" stroke="#4EB75D" stroke-width="1.17" stroke-linecap="round" stroke-linejoin="round"/>
        <path d="M103.038 55.64a3.628 3.628 0 0 0 3.125 1.794c1.282 0 2.47-.681 3.124-1.794M109.287 55.64a3.628 3.628 0 0 0 3.125 1.794c1.282 0 2.47-.681 3.124-1.794M115.536 55.64a3.628 3.628 0 0 0 3.125 1.794c1.282 0 2.47-.681 3.125-1.794M124.906 57.427a3.546 3.546 0 0 1-3.113-1.779" stroke="#4EB75D" stroke-width="1.17" stroke-linecap="round" stroke-linejoin="round"/>
        <circle fill="#8CE095" fill-rule="nonzero" cx="59.469" cy=".95" r="1"/>
        <path d="m61.585 46.408 17.02-.044C76.52 25.351 62.535 7.152 39.168 2.061c5.059 7.188 10.413 24.92 10.507 42.698a44.042 44.042 0 0 0 11.91 1.649z" stroke="#4EB75D" stroke-width="1.17" stroke-linecap="round" stroke-linejoin="round"/>
    </g>
</svg>
